<svg width="127" height="127" viewBox="0 0 127 127" fill="none" xmlns="http://www.w3.org/2000/svg">
<g clip-path="url(#clip0_1_21)">
<path d="M96.4417 61.7516L49.875 30.0016C49.2252 29.5614 48.387 29.5127 47.6927 29.8789C47.0006 30.2451 46.5667 30.9647 46.5667 31.75V95.25C46.5667 96.0353 47.0006 96.755 47.6949 97.1211C48.0039 97.2862 48.3447 97.3667 48.6833 97.3667C49.1003 97.3667 49.5173 97.2418 49.875 96.9984L96.4417 65.2484C97.0195 64.8547 97.3667 64.2006 97.3667 63.5C97.3667 62.7994 97.0195 62.1453 96.4417 61.7516ZM50.8 91.2432V35.7569L91.4929 63.5L50.8 91.2432Z" fill="white"/>
<path d="M63.5 0C28.4861 0 0 28.4861 0 63.5C0 98.5139 28.4861 127 63.5 127C98.5139 127 127 98.5139 127 63.5C127 28.4861 98.5139 0 63.5 0ZM63.5 122.767C30.8208 122.767 4.23333 96.1792 4.23333 63.5C4.23333 30.8208 30.8208 4.23333 63.5 4.23333C96.1792 4.23333 122.767 30.8208 122.767 63.5C122.767 96.1792 96.1792 122.767 63.5 122.767Z" fill="white"/>
</g>
<defs>
<clipPath id="clip0_1_21">
<rect width="127" height="127" fill="white"/>
</clipPath>
</defs>
</svg>
